export const Logo = () => {
<svg xmlns="http://www.w3.org/2000/svg" xmlns:xlink="http://www.w3.org/1999/xlink" viewBox="0 0 335.73 346.85"><defs><style>.cls-1{fill:url(#linear-gradient);}.cls-2{fill:url(#linear-gradient-2);}.cls-3{fill:url(#linear-gradient-3);}.cls-4{fill:url(#linear-gradient-4);}.cls-5{fill:url(#linear-gradient-5);}.cls-6{fill:url(#linear-gradient-6);}.cls-7{fill:#506aa3;}</style><linearGradient id="linear-gradient" x1="82.87" y1="73.72" x2="209.53" y2="73.72" gradientUnits="userSpaceOnUse"><stop offset="0" stop-color="#bcc9e2"/><stop offset="0.14" stop-color="#c8d6ea"/><stop offset="0.42" stop-color="#dbe9f6"/><stop offset="0.7" stop-color="#e5f4fd"/><stop offset="1" stop-color="#e9f8ff"/></linearGradient><linearGradient id="linear-gradient-2" x1="86.14" y1="106.39" x2="282.14" y2="106.39" xlink:href="#linear-gradient"/><linearGradient id="linear-gradient-3" x1="49.36" y1="231.42" x2="335.73" y2="231.42" xlink:href="#linear-gradient"/><linearGradient id="linear-gradient-4" x1="90.52" y1="144.36" x2="321.75" y2="144.36" xlink:href="#linear-gradient"/><linearGradient id="linear-gradient-5" x1="230.37" y1="71.04" x2="230.46" y2="71.04" xlink:href="#linear-gradient"/><linearGradient id="linear-gradient-6" x1="94.32" y1="311.13" x2="280.37" y2="311.13" xlink:href="#linear-gradient"/></defs><g id="Layer_2" data-name="Layer 2"><g id="Layer_1-2" data-name="Layer 1"><path class="cls-1" d="M114.24,88.7a285.8,285.8,0,0,1,25.39-31.2,274.87,274.87,0,0,1,28.56-25.94,281.55,281.55,0,0,1,41.34-27A168.36,168.36,0,0,0,170.45,0q-5.94,0-11.82.41A254.64,254.64,0,0,0,131,31.87q-6.11,8.27-11.2,16.46c-7.16,10.85-18.61,35.93-18.61,35.93a289.59,289.59,0,0,0-18.31,63.17A186,186,0,0,1,114.24,88.7Z"/><path class="cls-2" d="M154.48,67.18C143.26,77.6,131,97.1,131,97.1c-5.15,7.93-9.74,15.89-14.25,23.67a316.66,316.66,0,0,0-30.6,72.7c3.29-6.31,8.12-15.13,14.48-25.33a401.74,401.74,0,0,1,46.86-60.94c7-7.72,30.51-21.26,30.51-21.26a.29.29,0,0,0-.12-.09h0c.57-.43,1.13-.86,1.72-1.29l.18-.13c4.43-3.26,9.06-6.48,14-9.6A234.19,234.19,0,0,1,274,43.21c2.63-.29,5.36-.6,8.1-.86-2.07-2-4.21-3.78-6.42-5.61,0,0,0,0-.11-.05A163.18,163.18,0,0,0,250,19.3c-1.16.18-2.34.39-3.56.59-.36.05-.72.13-1.08.21A172.71,172.71,0,0,0,177,48.1,157.48,157.48,0,0,0,154.48,67.18Z"/><path class="cls-3" d="M316.21,236.69c12.53-34.8,8.16-66.74-9.35-80.27-16.74-13-42.76-7-56.28-3.83a90.59,90.59,0,0,0-9.7,2.73l-.12,0a135.27,135.27,0,0,0-22.32,10.94,1,1,0,0,1-.17.1l0,0-3.56,2a325.65,325.65,0,0,0-26.42,19.09C168,203.47,143,223.4,112.93,257.82q-8,9-16.8,20.18-8.61,10.77-17.75,23.49c-9.49,13.41-19.36,28.56-29,45.36,4.71-9.64,13.41-27,25.13-48,4.75-8.31,10-17.22,15.49-26.47,19.65-32.33,44.49-68.53,72.23-97.57a209.61,209.61,0,0,1,33.41-28.92l1.58-.93a165.33,165.33,0,0,1,25.16-14.25c15.72-7.64,37.56-16.5,65.44-14.39A113.33,113.33,0,0,1,312.22,121a32.6,32.6,0,0,1,22.9,28.46c.37,4,.56,8.09.61,12.18A156.42,156.42,0,0,1,316.21,236.69Z"/><path class="cls-4" d="M190.09,96.53C179,104,164.2,118.3,164.2,118.3l-.11.07c-21.69,21.08-36.61,42.92-44.64,54.67a316.62,316.62,0,0,0-28.93,52.17,325.06,325.06,0,0,1,32.71-42c13.09-14.36,30.84-33.75,54.88-50.52.92-.62,1.85-1.22,2.78-1.86a175,175,0,0,1,27.59-16,190.64,190.64,0,0,1,27.35-10.55c17.17-5.16,46.53-11.36,84.84-6.6l1.08-.2a159.83,159.83,0,0,0-19.94-33.65l-4.3,0a156.85,156.85,0,0,0-34.08,1.39C235,69.61,210.56,81.69,190.09,96.53Z"/><path class="cls-5" d="M230.37,71s.06,0,.06.08l0,0S230.4,71,230.37,71Z"/><path class="cls-6" d="M280.37,288a150.46,150.46,0,0,1-56.24,37.07,153.88,153.88,0,0,1-55,9.21,167.31,167.31,0,0,1-74.79-17.53l12-24.9a143.14,143.14,0,0,0,82.13,25.93,157.52,157.52,0,0,0,29.85-3.14C245.93,309,268.42,295.88,280.37,288Z"/><path class="cls-7" d="M310.6,308.75c-2.69-10.45-6.14-22.16-10.58-34.83-.73-2.09-1.49-4.21-2.3-6.38-.5-1.36-1-2.72-1.52-4.1-.6-1.57-1.2-3.16-1.83-4.76-4-10.42-8.59-21.27-13.87-32.4a476.81,476.81,0,0,0-48.14-80c-.13-.21-.29-.39-.42-.57-3.19-4.29-6.58-8.68-10.21-13.09q-6.55-8-14.09-16.1c-2.67-2.88-5.46-5.78-8.34-8.65q-5.18-5.17-10.32-9.93-6.19-5.69-12.28-10.74l1.62-1.41c-.6.44-1.18.86-1.75,1.3-3.53-3-7-5.77-10.45-8.44-1-.91-2-1.83-3.09-2.69-.42-.37-.83-.7-1.25-1-.68-.55-1.39-1.08-2.07-1.6q-3.36-2.62-6.84-5.15a178.68,178.68,0,0,0-15.08-9.82c-3-1.75-6.06-3.37-9.2-4.84A101.66,101.66,0,0,0,117.67,49a84.16,84.16,0,0,0-8.81-2.58A81.51,81.51,0,0,0,87,44.11a76.62,76.62,0,0,0-21.4,3.58A81.11,81.11,0,0,0,35.11,65.44s0,0-.07,0A90.28,90.28,0,0,0,15.75,91.2C4.38,113.68-.53,138.79.05,164a184.42,184.42,0,0,0,28.74,94.31A168.79,168.79,0,0,0,39.5,273c3.79,4.68,7.14,8.21,9.26,10.4,0,0,17.9-32.29,17.9-32.37.47-1-1.47-3.92-3.22-6.27-5.62-11.37-18.24-36.8-23.1-62.2a127.56,127.56,0,0,1,2.88-60.26C46.77,111,54,94.78,69.19,87.49c9.23-4.42,19.23-4.55,29.61-2A88.1,88.1,0,0,1,112.05,90a165.26,165.26,0,0,1,17,8.52c5.6,3.22,11.21,6.69,16.73,10.25q4.47,2.9,8.86,5.77c2.56,1.67,5.28,3.5,8.1,5.49,5.28,3.68,11,7.92,16.93,12.73,5.31,4.28,10.85,9,16.54,14.32,6.67,6.19,13.54,13.06,20.49,20.75a1.26,1.26,0,0,1,.21.26,688.44,688.44,0,0,1,48.79,64.78q3.52,5.32,7.06,10.84c1.43,2.25,2.84,4.5,4.2,6.72,1,1.65,2,3.27,3,4.89l0,0a.75.75,0,0,0,.07.12c1,1.57,1.9,3.14,2.82,4.68,3,5,5.88,9.91,8.6,14.77-1.7-3-3.48-6.07-5.28-9.12,2.77,4.73,5.51,9.56,8.28,14.55l-.87-1.62c.33.61.68,1.22,1,1.83a2.39,2.39,0,0,0-.13-.21c.92,1.67,1.83,3.35,2.77,5-.78-1.46-1.57-2.92-2.4-4.41,1,1.7,1.88,3.4,2.79,5.09-.13-.23-.23-.44-.39-.68q2.75,5.1,5.49,10.35l-.37-.75c.19.36.4.75.58,1.12a2.32,2.32,0,0,0-.21-.37c.91,1.75,1.83,3.53,2.74,5.31,2.28,4.44,4.45,8.78,6.51,13.06C311.52,312.33,311.07,310.56,310.6,308.75Z"/></g></g></svg>